<svg width="55" height="28" viewBox="0 0 55 28" fill="none" xmlns="http://www.w3.org/2000/svg">
<path d="M23.7423 18.119C26.3167 16.199 27.9166 13.5312 27.9166 10.5779C27.9166 4.73439 21.6665 0 13.9583 0C6.25009 0 0 4.73439 0 10.5779C0 16.4213 6.25009 21.1557 13.9583 21.1557C16.7403 21.1557 19.33 20.5367 21.5045 19.4732L26.0079 21.6382C26.2053 21.7317 26.3952 21.4968 26.261 21.325L23.7423 18.119Z" fill="#9FAFFF"/>
<path d="M53.4272 8.16052H31.6873C30.862 8.16052 30.1912 8.82748 30.1912 9.6536V22.6618L26.0523 26.1002C25.8422 26.2745 26.0295 26.6105 26.2903 26.5221L30.1912 25.1907V26.5069C30.1912 27.3305 30.8595 28 31.6873 28H53.4272C54.2524 28 54.9233 27.333 54.9233 26.5069V9.6536C54.9233 8.83001 54.255 8.16052 53.4272 8.16052Z" fill="#FFDF46"/>
<path d="M37.653 13.6583C37.6881 13.216 37.4081 12.833 37.0276 12.803C36.6471 12.7729 36.3102 13.107 36.2751 13.5494C36.24 13.9917 36.52 14.3746 36.9005 14.4047C37.2809 14.4348 37.6179 14.1006 37.653 13.6583Z" fill="black"/>
<path d="M34.3738 13.6604C34.4089 13.2181 34.1289 12.8351 33.7485 12.805C33.368 12.7749 33.0311 13.1091 32.996 13.5514C32.9608 13.9937 33.2408 14.3767 33.6213 14.4068C34.0018 14.4369 34.3387 14.1027 34.3738 13.6604Z" fill="black"/>
<path d="M25.1842 9.66318C25.2193 9.22087 24.9394 8.83792 24.5589 8.80783C24.1784 8.77775 23.8415 9.11192 23.8064 9.55423C23.7713 9.99654 24.0512 10.3795 24.4317 10.4096C24.8122 10.4397 25.1491 10.1055 25.1842 9.66318Z" fill="black"/>
<path d="M21.9114 9.66611C21.9465 9.2238 21.6665 8.84085 21.2861 8.81076C20.9056 8.78068 20.5687 9.11485 20.5335 9.55716C20.4984 9.99947 20.7784 10.3824 21.1589 10.4125C21.5394 10.4426 21.8763 10.1084 21.9114 9.66611Z" fill="black"/>
<path d="M23.7767 11.6865C23.7083 11.3202 23.2046 11.0145 22.8704 11.0145C22.5363 11.0145 22.0325 11.3202 21.9642 11.6865C21.9009 12.0276 22.0376 12.3712 22.8704 12.3585C23.7033 12.3712 23.8399 12.0276 23.7767 11.6865Z" fill="#FF6060"/>
<path d="M37.2013 15.1632H33.4371C33.3763 15.1632 33.3307 15.2213 33.3485 15.2794C33.5611 15.9034 34.275 16.5906 35.3154 16.5906C36.3558 16.5906 37.0722 15.906 37.2823 15.2794C37.3026 15.2213 37.2545 15.1632 37.1937 15.1632H37.2013Z" fill="#FF6060"/>
</svg>
